<?xml version="1.0" encoding="utf-8"?>
<!-- Generator: Adobe Illustrator 26.0.3, SVG Export Plug-In . SVG Version: 6.00 Build 0)  -->
<svg version="1.1" id="Слой_1" xmlns="http://www.w3.org/2000/svg" xmlns:xlink="http://www.w3.org/1999/xlink" x="0px" y="0px"
	 viewBox="0 0 1000 1000" style="enable-background:new 0 0 1000 1000;" xml:space="preserve">
<style type="text/css">
	.st0{fill:none;stroke:#D3751B;stroke-width:50;stroke-miterlimit:22.9256;}
	.st1{fill:#D3751B;}
</style>
<path class="st0" d="M733.2,660.45c-48.1,83.32-137,134.64-233.21,134.64c-96.21,0-185.11-51.32-233.21-134.64"/>
<g>
	<path class="st1" d="M461.28,358.81c-4.42-0.14-8.61-1.41-12.59-3.14c-10.54-4.58-21.02-9.31-31.47-14.1
		c-15.32-7.01-30.6-14.12-45.89-21.2c-11.6-5.37-23.18-10.75-34.78-16.12c-10.4-4.81-20.81-9.61-31.21-14.42
		c-11.67-5.4-23.33-10.81-34.99-16.22c-1.81-0.84-3.6-1.73-5.45-2.48c-0.54-0.22-1.35-0.22-1.88,0.02
		c-14.62,6.72-29.22,13.49-43.82,20.24c-13.52,6.25-27.03,12.51-40.55,18.76c-18.63,8.62-37.25,17.24-55.87,25.87
		c-9.13,4.23-18.24,8.51-27.38,12.72c-5.04,2.32-10.05,4.7-15.18,6.81c-3.83,1.57-7.8,2.87-12,3.11c-0.71,0.04-1.44,0.03-2.15-0.07
		c-1.83-0.25-2.56-1.46-1.61-3.08c0.92-1.56,2.06-3.04,3.32-4.35c3.37-3.5,7.4-6.19,11.37-8.96c7.05-4.91,14.03-9.91,21.04-14.88
		c17.93-12.72,35.84-25.45,53.77-38.16c17.28-12.25,34.57-24.48,51.84-36.73c19.1-13.55,38.2-27.1,57.28-40.69
		c1.03-0.74,1.71-0.8,2.77-0.04c12.78,9.13,25.59,18.22,38.4,27.31c14.11,10.01,28.24,20,42.36,30.01
		c12.48,8.85,24.95,17.72,37.44,26.58c12.12,8.6,24.27,17.17,36.38,25.78c10.03,7.13,20.01,14.34,30.08,21.41
		c4.16,2.92,8.28,5.87,11.76,9.61c0.89,0.95,1.68,2.06,2.26,3.22c0.92,1.82,0.13,3.01-1.93,3.17
		C462.16,358.84,461.72,358.81,461.28,358.81z"/>
</g>
<g>
	<path class="st1" d="M927.46,358.81c-3.68-0.07-7.13-1.21-10.58-2.36c-8.66-2.89-16.71-7.17-24.99-10.93
		c-12.79-5.81-25.52-11.78-38.27-17.69c-15.65-7.25-31.3-14.5-46.96-21.74c-11.7-5.41-23.42-10.81-35.12-16.22
		c-11.67-5.4-23.33-10.81-34.99-16.22c-1.85-0.86-3.67-1.76-5.55-2.54c-0.48-0.2-1.2-0.22-1.67,0c-12.11,5.58-24.2,11.2-36.3,16.8
		c-9.31,4.31-18.64,8.58-27.96,12.89c-15.65,7.24-31.3,14.5-46.95,21.74c-15.65,7.24-31.32,14.46-46.96,21.72
		c-6.92,3.21-13.77,6.56-20.71,9.7c-4.47,2.03-9.1,3.68-13.97,4.49c-1.36,0.23-2.79,0.26-4.17,0.15c-1.87-0.15-2.53-1.31-1.71-3.02
		c0.55-1.13,1.3-2.21,2.15-3.15c3.53-3.93,7.82-6.92,12.13-9.91c5.71-3.97,11.37-8,17.04-12.02c15.42-10.93,30.83-21.86,46.24-32.8
		c12.9-9.16,25.79-18.33,38.7-27.48c14.96-10.61,29.93-21.2,44.9-31.81c12.58-8.92,25.17-17.84,37.72-26.8
		c0.89-0.63,1.45-0.65,2.36,0c15.65,11.16,31.33,22.28,47.01,33.39c14.77,10.47,29.54,20.92,44.31,31.39
		c14.54,10.31,29.06,20.62,43.59,30.95c16.68,11.85,33.32,23.75,50.03,35.54c3.99,2.82,7.94,5.65,11.33,9.19
		c0.98,1.03,1.87,2.21,2.56,3.45c1.02,1.84,0.23,3.11-1.87,3.28C928.34,358.84,927.9,358.81,927.46,358.81z"/>
</g>
</svg>
